<?xml version="1.0" encoding="UTF-8" standalone="no"?>
<svg width="100px" height="30px" viewBox="0 0 100 30" version="1.1" xmlns="http://www.w3.org/2000/svg" xmlns:xlink="http://www.w3.org/1999/xlink" xmlns:sketch="http://www.bohemiancoding.com/sketch/ns">
    <!-- Generator: Sketch 3.3.2 (12043) - http://www.bohemiancoding.com/sketch -->
    <title>Logo</title>
    <desc>Created with Sketch.</desc>
    <defs></defs>
    <g id="Page-1" stroke="none" stroke-width="1" fill="none" fill-rule="evenodd" sketch:type="MSPage">
        <g id="Logo" sketch:type="MSLayerGroup">
            <path d="M29.5940142,0.371751967 L21.1355132,23.7579579 L23.0433038,23.7579579 L27.2517764,12.252281 L33.4511511,12.2675811 C33.4511511,12.2675811 36.3870686,20.1909863 37.7162908,23.7579579 L39.6203035,23.7579579 L31.0975798,0.371751967 L29.5940142,0.371751967 L29.5940142,0.371751967 Z M30.3382414,3.79132483 C31.1334756,5.95702983 31.9482395,8.17464991 32.7673688,10.393319 L27.9204475,10.393319 C28.729613,8.16919206 29.6102038,5.81820159 30.3382414,3.79132483 L30.3382414,3.79132483 Z" id="path12" fill-opacity="0.8" fill="#000000" sketch:type="MSShapeGroup"></path>
            <path d="M48.4517117,23.7585651 L41.5989438,23.7585651 L41.5658721,0.371751967 L49.0201266,0.371751967 C49.8890286,0.394511175 50.6961789,0.563505088 51.443386,0.879256359 C52.1898194,1.19553151 52.8473735,1.61853894 53.4157884,2.14854183 C53.9842045,2.67880543 54.4296359,3.29906056 54.7528575,4.00982865 C55.0755629,4.72085867 55.2375611,5.45987932 55.2375611,6.22689181 C55.2375611,7.31017944 54.9587786,8.29719761 54.4019897,9.18820824 C53.8449432,10.0800035 53.1320978,10.7960038 52.2626796,11.337778 C53.3325933,11.9017887 54.1733316,12.6912985 54.7867042,13.7070931 C55.3993006,14.7223638 55.7057294,15.8278868 55.7057294,17.0236632 C55.7057294,17.9264451 55.5331376,18.7784785 55.187954,19.5789749 C54.8419955,20.3802572 54.3691766,21.0800386 53.7671737,21.6772726 C53.1654271,22.2755518 52.4577497,22.7553276 51.6441402,23.1158127 C50.8310482,23.4770823 49.9564633,23.6688355 49.020644,23.691334 L49.0537158,23.691334 L48.4517117,23.7585651 L48.4517117,23.7585651 Z M43.4036638,2.16528381 L43.4036638,10.3897387 L49.0198691,10.3897387 C49.6430591,10.3672415 50.2231012,10.2489974 50.7576706,10.0344851 C51.2927562,9.82023466 51.7549816,9.52698066 52.1451217,9.15446112 C52.535003,8.78220473 52.8414306,8.34794744 53.0646631,7.85169168 C53.2866033,7.35569786 53.3987369,6.81392246 53.3987369,6.22689181 C53.3987369,5.70839949 53.2866033,5.21162108 53.0646631,4.73812331 C52.8416893,4.26410411 52.535003,3.84083474 52.1451217,3.46857713 C51.7549816,3.09631952 51.2927562,2.79757217 50.7576706,2.57154927 C50.2233599,2.34631095 49.6433178,2.21080223 49.0198691,2.16528381 L43.4036638,2.16528381 L43.4036638,2.16528381 Z M49.0201266,21.8972782 C49.6887905,21.8750417 50.3179235,21.7282843 50.9085591,21.4572657 C51.4991947,21.1862482 52.0120608,20.8307326 52.4463812,20.3909832 C52.8807028,19.9512325 53.2264026,19.4432043 53.4829656,18.8682068 C53.7384938,18.2926867 53.8674215,17.6784488 53.8674215,17.0234013 C53.8674215,16.4143948 53.7384938,15.8278868 53.4829656,15.2636153 C53.2264026,14.6996046 52.8807028,14.2030869 52.4463812,13.7743242 C52.0120608,13.3458222 51.498936,12.9958011 50.9085591,12.7250456 C50.3181822,12.4545508 49.6887905,12.2965436 49.0201266,12.2510252 L43.4039225,12.2510252 L43.4039225,21.8970163 L49.0201266,21.8970163 L49.0201266,21.8972782 Z" id="path14" fill-opacity="0.8" fill="#000000" sketch:type="MSShapeGroup"></path>
            <path d="M60.3620681,23.7585651 L58.5240176,23.7585651 L58.4904296,0.371751967 L60.3284789,0.371751967 L60.3620681,23.7585651 L60.3620681,23.7585651 Z" id="path16" fill-opacity="0.8" fill="#000000" sketch:type="MSShapeGroup"></path>
            <path d="M65.6478819,12.2515491 L73.3416528,12.2515491 L73.3630986,10.3902626 L65.6478819,10.3902626 L65.6478819,2.13179985 L77.3143542,2.13179985 L77.3143542,0.371751967 L63.8095763,0.371751967 L63.8426469,23.7585651 L65.6812112,23.7585651 C65.6812112,21.8632704 65.6757711,19.9460011 65.6644196,18.0049261 C65.6530559,16.0651595 65.6478819,14.1468437 65.6478819,12.2515491 L65.6478819,12.2515491 Z" id="path18" fill-opacity="0.8" fill="#000000" sketch:type="MSShapeGroup"></path>
            <path d="M99.416898,0.371751967 L89.9233345,13.2328119 C89.9233345,14.9481248 89.9287746,16.7021554 89.9406459,18.4959492 C89.951526,20.2894823 89.9566638,22.0440356 89.9566638,23.7585651 L88.0852792,23.7585651 L88.0516961,13.2328119 C87.3161064,12.21754 86.5417717,11.1679995 85.7284258,10.085498 C84.9148139,9.00221041 84.1012021,7.90819802 83.288364,6.80241311 C82.4742444,5.69688892 81.6670881,4.60235387 80.8645981,3.51932818 C80.062096,2.43604054 79.2936969,1.38728463 78.5581194,0.371751967 L80.9981691,0.371751967 L88.9536662,11.405271 C90.2915041,9.57773171 91.6332226,7.73868023 92.9816625,5.88838133 C94.3301025,4.03860386 95.6731145,2.19929166 97.0101787,0.371751967 L99.416898,0.371751967 L99.416898,0.371751967 Z" id="path20" fill-opacity="0.8" fill="#000000" sketch:type="MSShapeGroup"></path>
            <path d="M12.4654549,0.12695645 C5.96949818,0.12695645 0.705154433,5.46119023 0.705154433,12.0380857 C0.705154433,15.302059 2.00461592,18.2532627 4.10517716,20.4034166 C4.12092788,20.4195393 4.13466941,20.4371099 4.1505108,20.453142 L12.4163435,29.575828 L20.5272866,20.7285438 C20.6172708,20.635906 20.7056944,20.541721 20.7917328,20.4454919 L20.787949,20.4454919 L20.7917328,20.4416608 L19.4543905,19.0952518 C17.6674982,20.9089271 15.195918,22.0328714 12.4654549,22.0328714 C7.01383284,22.0328714 2.59405595,17.5573247 2.59405595,12.0380796 C2.59405595,6.51805031 7.01383284,2.04328814 12.4654549,2.04328814 C15.1910086,2.04328814 17.66046,3.16098999 19.4468349,4.9694327 L20.7841772,3.61537365 C18.6554607,1.46030896 15.713176,0.12695033 12.4654549,0.12695033 L12.4654549,0.12695645 Z" id="path22" fill-opacity="0.8" fill="#000000" sketch:type="MSShapeGroup"></path>
            <ellipse id="circle31" fill="#E5A517" sketch:type="MSShapeGroup" cx="12.4431055" cy="12.1340266" rx="4.60545898" ry="4.66302721"></ellipse>
        </g>
    </g>
</svg>